<svg width="28" height="28" viewBox="0 0 28 28" fill="none" xmlns="http://www.w3.org/2000/svg">
<g id="iconmonstr-info-filled 1">
<path id="Vector" d="M14.0023 2.33917C20.44 2.33917 25.6667 7.56584 25.6667 14.0023C25.6667 20.44 20.44 25.6667 14.0023 25.6667C7.56584 25.6667 2.33917 20.44 2.33917 14.0023C2.33917 7.56584 7.56584 2.33917 14.0023 2.33917ZM14.0023 11.6725C13.5193 11.6725 13.1273 12.0645 13.1273 12.5475V18.9642C13.1273 19.4472 13.5193 19.8392 14.0023 19.8392C14.4853 19.8392 14.8773 19.4472 14.8773 18.9642V12.5475C14.8773 12.0645 14.4853 11.6725 14.0023 11.6725ZM14 8.17251C13.356 8.17251 12.8333 8.69517 12.8333 9.33917C12.8333 9.98317 13.356 10.5058 14 10.5058C14.644 10.5058 15.1667 9.98317 15.1667 9.33917C15.1667 8.69517 14.644 8.17251 14 8.17251Z" fill="black"/>
</g>
</svg>
